Coordinates
version=1
nRows=29
nColumns=24
inDegrees=yes

Units are S.I. units (second, meters, Newtons, ...)
Angles are in degrees.

endheader
time	pelvis_tilt	pelvis_list	pelvis_rotation	pelvis_tx	pelvis_ty	pelvis_tz	hip_flexion_r	hip_adduction_r	hip_rotation_r	knee_angle_r	ankle_angle_r	subtalar_angle_r	mtp_angle_r	hip_flexion_l	hip_adduction_l	hip_rotation_l	knee_angle_l	ankle_angle_l	subtalar_angle_l	mtp_angle_l	lumbar_extension	lumbar_bending	lumbar_rotation
      2.50000000	      5.87327345	      3.46082589	      1.37612441	      0.16565723	      1.02025209	      0.03948015	    -18.97074952	      1.39960098	     -5.63200791	     -0.38192949	     13.42804044	      0.00000000	      0.00000000	     12.47449125	      3.03377058	     -0.77051193	     -5.06653901	      5.11190453	      0.00000000	      0.00000000	    -17.59486929	     -5.66849366	      3.50917965
      2.51000000	      5.87800641	      3.44841127	      1.35869585	      0.16570874	      1.01909699	      0.03850941	    -19.29418361	      1.34123187	     -5.63994189	     -0.74228127	     13.79892799	      0.00000000	      0.00000000	     11.99012156	      3.20563270	     -0.17971266	     -3.25397157	      5.09866048	      0.00000000	      0.00000000	    -17.65674946	     -5.69370375	      3.38998888
      2.52000000	      5.90949369	      3.44566385	      1.35365058	      0.16580983	      1.01797757	      0.03752395	    -19.60122398	      1.27399828	     -5.62953222	     -1.19837096	     14.17805845	      0.00000000	      0.00000000	     11.63390138	      3.38988236	      0.38400059	     -2.09464711	      5.17830256	      0.00000000	      0.00000000	    -17.75651328	     -5.73623288	      3.27046875
      2.53000000	      5.92320900	      3.43408080	      1.29638672	      0.16616982	      1.01686724	      0.03650447	    -19.90092683	      1.18844174	     -5.62517072	     -1.65403505	     14.44483641	      0.00000000	      0.00000000	     11.44835738	      3.57353683	      0.79608871	     -1.61580104	      5.36728892	      0.00000000	      0.00000000	    -17.78512429	     -5.78347626	      3.18336692
      2.54000000	      5.98726644	      3.44659727	      1.27101080	      0.16648293	      1.01589852	      0.03545694	    -20.23188962	      1.08019431	     -5.54364708	     -2.15654775	     14.62803062	      0.00000000	      0.00000000	     11.37111025	      3.79895905	      1.09015460	     -1.71546401	      5.41120739	      0.00000000	      0.00000000	    -17.89043126	     -5.85523774	      3.03252301
      2.55000000	      6.23301833	      3.52641460	      1.23468711	      0.16706018	      1.01516870	      0.03433626	    -20.68238634	      0.91062215	     -5.73834841	     -2.88735275	     15.27532015	      0.00000000	      0.00000000	     11.14465999	      4.10021271	      1.42727297	     -2.22113278	      5.60849363	      0.00000000	      0.00000000	    -18.17292130	     -5.99897487	      2.89613314
      2.56000000	      6.35794457	      3.55769344	      1.14411121	      0.16779293	      1.01436895	      0.03329688	    -21.07379983	      0.75620687	     -5.66303426	     -3.44056073	     15.38650180	      0.00000000	      0.00000000	     11.12347085	      4.34425719	      1.64176683	     -3.08181823	      5.48921455	      0.00000000	      0.00000000	    -18.28979333	     -6.11948687	      2.83218131
      2.57000000	      6.56498162	      3.60201204	      1.09421936	      0.16862723	      1.01366032	      0.03215959	    -21.45968979	      0.60516628	     -5.78049863	     -4.23304940	     15.82438240	      0.00000000	      0.00000000	     11.16189259	      4.62291578	      1.75715229	     -4.41854069	      5.61577838	      0.00000000	      0.00000000	    -18.48705457	     -6.24588439	      2.72345383
      2.58000000	      6.70714756	      3.62118064	      0.94882764	      0.16976703	      1.01298935	      0.03111240	    -21.84353772	      0.43221168	     -5.65958366	     -4.87361176	     15.82607450	      0.00000000	      0.00000000	     11.17105266	      4.83626121	      1.97911094	     -5.66981125	      5.28097960	      0.00000000	      0.00000000	    -18.55771619	     -6.38029920	      2.75182891
      2.59000000	      6.87599917	      3.62394084	      0.79804556	      0.17102454	      1.01243751	      0.03009705	    -22.20375803	      0.27460779	     -5.59518638	     -5.61473978	     15.85753477	      0.00000000	      0.00000000	     11.17636367	      5.02741582	      2.10915689	     -7.04785565	      4.94660580	      0.00000000	      0.00000000	    -18.65180449	     -6.50443645	      2.75633085
      2.60000000	      7.04507181	      3.61055421	      0.64367519	      0.17243695	      1.01196354	      0.02906452	    -22.50821563	      0.11702534	     -5.53171506	     -6.48031516	     15.84402939	      0.00000000	      0.00000000	     11.17267344	      5.19089488	      2.21361094	     -8.43967675	      4.58776312	      0.00000000	      0.00000000	    -18.72621788	     -6.61641143	      2.77522935
      2.61000000	      6.84222092	      3.45081210	      0.52737685	      0.17340526	      1.01091563	      0.02809301	    -21.89204881	      0.08217609	     -5.51544951	     -8.39347818	     16.54328943	      0.00000000	      0.00000000	     11.81429479	      5.19110296	      1.91117279	    -10.26273582	      4.67467551	      0.00000000	      0.00000000	    -18.43108918	     -6.57561394	      2.76072132
      2.62000000	      6.94701569	      3.41921915	      0.27072564	      0.17525031	      1.01073875	      0.02710527	    -22.10555341	     -0.11642247	     -5.35891046	     -9.23547796	     16.17487551	      0.00000000	      0.00000000	     11.68682419	      5.28783916	      2.21633650	    -11.30990682	      4.17845741	      0.00000000	      0.00000000	    -18.37308657	     -6.69228009	      2.93854544
      2.63000000	      6.68467577	      3.27762596	     -0.03315956	      0.17631706	      1.01008976	      0.02637737	    -21.17625326	     -0.27320151	     -5.13176777	    -11.54223218	     16.28610939	      0.00000000	      0.00000000	     12.14413123	      5.22285588	      1.87981209	    -12.58263893	      3.80620355	      0.00000000	      0.00000000	    -17.99901752	     -6.72033728	      3.09233204
      2.64000000	      6.86994054	      3.23226606	     -0.21361087	      0.17802864	      1.01044487	      0.02534313	    -21.16059198	     -0.46220570	     -4.97038516	    -12.94604174	     15.61918686	      0.00000000	      0.00000000	     11.88517389	      5.30113989	      2.12310762	    -13.49385439	      3.49208531	      0.00000000	      0.00000000	    -18.08302958	     -6.79711518	      3.11447202
      2.65000000	      6.60625777	      3.14069966	     -0.64150903	      0.17924144	      1.01021093	      0.02464946	    -19.92973813	     -0.76882856	     -4.90146766	    -15.75133064	     15.37739975	      0.00000000	      0.00000000	     12.09841409	      5.24052836	      1.72911917	    -14.27851279	      3.39463923	      0.00000000	      0.00000000	    -17.68437357	     -6.88607087	      3.40354738
      2.66000000	      6.82677324	      3.07748806	     -0.78032865	      0.18074883	      1.01101162	      0.02358514	    -19.60446631	     -0.95578279	     -4.68389152	    -17.71775417	     14.38798028	      0.00000000	      0.00000000	     11.72088638	      5.29955412	      1.99892514	    -15.02074366	      3.29540007	      0.00000000	      0.00000000	    -17.85752393	     -6.92692850	      3.28811807
      2.67000000	      6.17793580	      3.00159971	     -1.26669626	      0.18163798	      1.01041753	      0.02283309	    -17.47906613	     -1.34915183	     -4.56285883	    -21.28784321	     13.82833047	      0.00000000	      0.00000000	     12.39121135	      5.24037941	      1.56719174	    -15.90492105	      3.56648138	      0.00000000	      0.00000000	    -17.04596147	     -7.01295666	      3.61659761
      2.68000000	      6.38647807	      2.97734900	     -1.52476594	      0.18295576	      1.01146784	      0.02174809	    -16.66851036	     -1.71266719	     -4.61727029	    -24.00071050	     12.36355054	      0.00000000	      0.00000000	     11.84282334	      5.31497334	      1.56903742	    -16.29589654	      3.81753145	      0.00000000	      0.00000000	    -17.21988451	     -7.09051422	      3.61175714
      2.69000000	      6.02218994	      3.05786329	     -1.92269992	      0.18385294	      1.01154794	      0.02079439	    -14.77658474	     -2.25045808	     -4.47888049	    -27.52243963	     11.15581934	      0.00000000	      0.00000000	     12.00714775	      5.44410919	      1.21963147	    -16.82261571	      4.12147022	      0.00000000	      0.00000000	    -16.75189281	     -7.29364943	      3.70882206
      2.70000000	      6.01965167	      3.11784739	     -2.21450530	      0.18486364	      1.01231623	      0.01961974	    -13.36627481	     -2.76078824	     -4.50171529	    -30.75475610	      9.41142652	      0.00000000	      0.00000000	     11.62488492	      5.59514453	      1.01131693	    -17.09962621	      4.51072141	      0.00000000	      0.00000000	    -16.70009276	     -7.43662964	      3.66222737
      2.71000000	      6.27119514	      3.13635473	     -2.40607601	      0.18588510	      1.01351628	      0.01828481	    -12.26923053	     -3.22557579	     -4.62576111	    -33.82154879	      7.40872318	      0.00000000	      0.00000000	     10.87533480	      5.73527185	      0.92078087	    -17.23678119	      5.04993018	      0.00000000	      0.00000000	    -16.95207295	     -7.49843141	      3.48933646
      2.72000000	      6.32217510	      3.27417636	     -2.66444538	      0.18677697	      1.01434653	      0.01703123	    -10.78668938	     -3.84486695	     -4.69603031	    -37.11554341	      5.36296095	      0.00000000	      0.00000000	     10.28209848	      5.96923301	      0.58884690	    -17.21618520	      5.50009782	      0.00000000	      0.00000000	    -16.96276214	     -7.70029464	      3.33430432
      2.73000000	      6.44052254	      3.36418719	     -2.87926626	      0.18749820	      1.01522760	      0.01565621	     -9.36099335	     -4.41086652	     -4.76730256	    -40.34469465	      3.42675221	      0.00000000	      0.00000000	      9.57921365	      6.16611205	      0.32161269	    -17.13745212	      5.96501906	      0.00000000	      0.00000000	    -17.07044500	     -7.81202765	      3.09169249
      2.74000000	      6.33548292	      3.49878928	     -3.09476407	      0.18802399	      1.01566215	      0.01435516	     -7.59772426	     -5.00648524	     -4.76055634	    -43.68542025	      1.83086635	      0.00000000	      0.00000000	      9.09544879	      6.37840964	     -0.11822015	    -16.96248786	      6.24525315	      0.00000000	      0.00000000	    -16.92877190	     -7.97026882	      2.85207942
      2.75000000	      6.60160046	      3.51622653	     -3.17477474	      0.18860922	      1.01671901	      0.01289551	     -6.41914367	     -5.45120142	     -4.87163290	    -46.61278499	      0.18969361	      0.00000000	      0.00000000	      8.12487557	      6.51844631	     -0.28967689	    -16.68986728	      6.76977558	      0.00000000	      0.00000000	    -17.22300264	     -7.96532022	      2.45359010
      2.76000000	      6.73612537	      3.63445314	     -3.29084869	      0.18902050	      1.01752571	      0.01156544	     -5.03422482	     -5.98990198	     -4.91019496	    -49.55866486	     -1.14204968	      0.00000000	      0.00000000	      7.23337063	      6.73752310	     -0.61499584	    -16.22401770	      7.05384373	      0.00000000	      0.00000000	    -17.36083630	     -8.07584004	      2.04438366
      2.77000000	      6.79898652	      3.72707698	     -3.39749695	      0.18920774	      1.01817244	      0.01025458	     -3.55672944	     -6.46276213	     -4.86552644	    -52.45257973	     -1.93929421	      0.00000000	      0.00000000	      6.42944489	      6.92669909	     -0.87868102	    -15.75659203	      7.24152835	      0.00000000	      0.00000000	    -17.43420775	     -8.14271676	      1.62282129
      2.78000000	      7.03205216	      3.68654658	     -3.38745042	      0.18929766	      1.01913521	      0.00888972	     -2.38807490	     -6.74406054	     -4.89104482	    -55.03018575	     -2.55507138	      0.00000000	      0.00000000	      5.42736732	      7.00098608	     -0.91347620	    -15.29519588	      7.63775494	      0.00000000	      0.00000000	    -17.71715117	     -8.03734550	      1.10827067
